<svg width="30" height="30" viewBox="0 0 30 30" fill="none" xmlns="http://www.w3.org/2000/svg">
<path d="M13.6251 2.62509C7.87511 3.25009 3.25011 7.87509 2.62511 13.5001C1.87511 19.7501 5.75011 25.1251 11.2501 26.8751V24.0001C11.2501 24.0001 10.7501 24.1251 10.1251 24.1251C8.37511 24.1251 7.62511 22.6251 7.50011 21.7501C7.37511 21.2501 7.12511 20.8751 6.75011 20.5001C6.37511 20.3751 6.25011 20.3751 6.25011 20.2501C6.25011 20.0001 6.62511 20.0001 6.75011 20.0001C7.50011 20.0001 8.12511 20.8751 8.37511 21.2501C9.00011 22.2501 9.75011 22.5001 10.1251 22.5001C10.6251 22.5001 11.0001 22.3751 11.2501 22.2501C11.3751 21.3751 11.7501 20.5001 12.5001 20.0001C9.62511 19.3751 7.50011 17.7501 7.50011 15.0001C7.50011 13.6251 8.12511 12.2501 9.00011 11.2501C8.87511 11.0001 8.75011 10.3751 8.75011 9.50009C8.75011 9.00009 8.75011 8.25009 9.12511 7.50009C9.12511 7.50009 10.8751 7.50009 12.6251 9.12509C13.2501 8.87509 14.1251 8.75009 15.0001 8.75009C15.8751 8.75009 16.7501 8.87509 17.5001 9.12509C19.1251 7.50009 21.0001 7.50009 21.0001 7.50009C21.2501 8.25009 21.2501 9.00009 21.2501 9.50009C21.2501 10.5001 21.1251 11.0001 21.0001 11.2501C21.8751 12.2501 22.5001 13.5001 22.5001 15.0001C22.5001 17.7501 20.3751 19.3751 17.5001 20.0001C18.2501 20.6251 18.7501 21.7501 18.7501 22.8751V27.0001C23.8751 25.3751 27.5001 20.6251 27.5001 15.1251C27.5001 7.62509 21.1251 1.75009 13.6251 2.62509Z" fill="#BBBBBB"/>
</svg>
