<svg width="30" height="30" viewBox="0 0 30 30" fill="none" xmlns="http://www.w3.org/2000/svg">
<path d="M26.25 3.75H3.75V26.25H26.25V3.75ZM11.25 21.25H8.09625V12.5H11.25V21.25ZM9.6175 10.8962C8.65375 10.8962 8.01 10.2538 8.01 9.39625C8.01 8.53875 8.6525 7.89625 9.72375 7.89625C10.6875 7.89625 11.3312 8.53875 11.3312 9.39625C11.3312 10.2538 10.6887 10.8962 9.6175 10.8962ZM22.5 21.25H19.4475V16.4675C19.4475 15.145 18.6337 14.84 18.3288 14.84C18.0238 14.84 17.0062 15.0437 17.0062 16.4675C17.0062 16.6712 17.0062 21.25 17.0062 21.25H13.8525V12.5H17.0062V13.7213C17.4125 13.0087 18.2262 12.5 19.7525 12.5C21.2787 12.5 22.5 13.7212 22.5 16.4675V21.25Z" fill="#BBBBBB"/>
</svg>
